<svg width="168" height="56" viewBox="0 0 168 56" fill="none" xmlns="http://www.w3.org/2000/svg">
<path d="M73.8775 8.56534H96.8162L110.151 25.8693L96.8162 43.9157H73.8775V8.56534ZM66.5591 1.36963V51.1685L100.461 51.1399L119.292 25.8693L100.374 1.36963H66.5591Z" fill="white"/>
<mask id="mask0_1396_183" style="mask-type:luminance" maskUnits="userSpaceOnUse" x="66" y="1" width="54" height="51">
<path d="M73.877 8.56534H96.8157L110.151 25.8693L96.8157 43.9157H73.877V8.56534ZM66.5586 1.36963V51.1685L100.46 51.1399L119.292 25.8693L100.374 1.36963H66.5586Z" fill="white"/>
</mask>
<g mask="url(#mask0_1396_183)">
<path d="M119.321 1.36963H66.5591V51.1685H119.321V1.36963Z" fill="white"/>
</g>
<path d="M167.855 0.771484H160.305V51.7411H167.855V0.771484Z" fill="white"/>
<mask id="mask1_1396_183" style="mask-type:luminance" maskUnits="userSpaceOnUse" x="160" y="0" width="8" height="52">
<path d="M167.854 0.771484H160.304V51.7411H167.854V0.771484Z" fill="white"/>
</mask>
<g mask="url(#mask1_1396_183)">
<path d="M167.855 0.771484H160.305V51.7411H167.855V0.771484Z" fill="white"/>
</g>
<path d="M132.423 31.1233L138.295 38.5189L134.448 43.9157L123.051 43.9442L132.423 31.1233ZM123.832 8.53678H140.233L132.365 19.2732L123.832 8.53678ZM118.133 1.36963H114.778H108.761L127.852 25.4124L108.992 51.1685H110.236H117.786H138.295L143.01 44.4868L148.882 51.8824L154.696 47.3993L147.407 38.2334L153.655 29.3815L147.812 25.2126L142.75 32.3226L136.935 24.9841L154.205 1.36963H118.133Z" fill="white"/>
<mask id="mask2_1396_183" style="mask-type:luminance" maskUnits="userSpaceOnUse" x="108" y="1" width="47" height="51">
<path d="M132.424 31.1233L138.296 38.5189L134.448 43.9157L123.051 43.9442L132.424 31.1233ZM123.832 8.53678H140.234L132.366 19.2732L123.832 8.53678ZM118.134 1.36963H114.778H108.762L127.853 25.4124L108.993 51.1685H110.237H117.787H138.296L143.011 44.4868L148.883 51.8824L154.697 47.3993L147.408 38.2334L153.656 29.3815L147.813 25.2126L142.75 32.3226L136.936 24.9841L154.205 1.36963H118.134Z" fill="white"/>
</mask>
<g mask="url(#mask2_1396_183)">
<path d="M154.725 1.36963H108.761V51.8824H154.725V1.36963Z" fill="white"/>
</g>
<g clip-path="url(#clip0_1396_183)">
<path fill-rule="evenodd" clip-rule="evenodd" d="M-0.00219727 27.669C-0.00219727 42.9524 12.3463 55.367 27.5636 55.367V54.2147C12.9659 54.2147 1.15094 42.3328 1.15094 27.669C1.15094 13.0342 12.9659 1.09607 27.5636 1.09607C42.1315 1.09607 54.0017 13.0342 54.0017 27.669C54.0017 42.3328 42.1315 54.2147 27.5636 54.2147V55.367C42.7501 55.367 55.1258 42.9524 55.1258 27.669C55.1258 12.4173 42.7501 0 27.5636 0C12.3463 0 -0.00219727 12.4173 -0.00219727 27.669Z" fill="white"/>
<path fill-rule="evenodd" clip-rule="evenodd" d="M7.65051 27.6725C7.65051 38.7129 16.5658 47.7016 27.5655 47.7016V46.9443C16.9889 46.9443 8.40961 38.3197 8.40961 27.6725C8.40961 17.0542 16.9889 8.42963 27.5655 8.42963C38.1386 8.42963 46.7178 17.0542 46.7178 27.6725C46.7178 38.3197 38.1386 46.9443 27.5655 46.9443V47.7016C38.5335 47.7016 47.4769 38.7129 47.4769 27.6725C47.4769 16.661 38.5335 7.67236 27.5655 7.67236C16.5658 7.67236 7.65051 16.661 7.65051 27.6725Z" fill="white"/>
<path fill-rule="evenodd" clip-rule="evenodd" d="M21.0637 11.9148C21.0075 12.1412 20.9242 12.3649 20.7547 12.6458C20.5292 12.8695 20.3598 13.038 20.137 13.2056L20.3598 13.7092C20.7547 13.4293 21.0075 13.1223 21.2339 12.8143L22.1878 14.9176L22.9768 14.5562L21.7394 11.6611L21.0637 11.9148Z" fill="white"/>
<path fill-rule="evenodd" clip-rule="evenodd" d="M25.1945 13.4835V14.018C24.8846 14.0451 24.66 14.018 24.4924 13.9337C24.2107 13.8214 24.0974 13.6493 23.9571 13.3983L24.8303 13.2018C24.8846 13.3431 24.9417 13.3983 25.026 13.4255C25.0531 13.4835 25.1102 13.4835 25.1945 13.4835ZM25.1945 10.7587V11.2361C25.1364 11.2361 25.1102 11.2361 25.0531 11.2914C24.8846 11.2914 24.746 11.3774 24.66 11.4626C24.5757 11.5468 24.5205 11.7416 24.5757 11.911C24.5757 12.1374 24.66 12.2769 24.8004 12.3612C24.8846 12.4173 25.0531 12.4418 25.1945 12.4173V12.8929C24.8004 12.9482 24.4924 12.8929 24.1835 12.7262C23.9018 12.584 23.7333 12.3612 23.6763 12.0514C23.6491 11.7416 23.7333 11.4626 23.9861 11.209C24.2107 10.9798 24.5757 10.8448 25.026 10.7587H25.1945ZM26.208 10.9798C25.9544 10.7877 25.5885 10.7025 25.1945 10.7587V11.2361C25.2805 11.2361 25.4209 11.2914 25.5604 11.3774C25.6736 11.4626 25.7859 11.6002 25.8131 11.7706C25.8131 11.9681 25.7859 12.0777 25.6736 12.2226C25.5885 12.3041 25.4209 12.4173 25.2805 12.4173H25.1945V12.8929C25.5043 12.8657 25.7859 12.7262 25.9816 12.4971C25.9816 12.8657 25.9544 13.1184 25.8702 13.257C25.7307 13.3983 25.5885 13.4835 25.4209 13.4835C25.3366 13.5125 25.2515 13.5125 25.1945 13.4835V14.018H25.4209C25.8974 13.9337 26.3186 13.7054 26.5732 13.4255C26.8838 13.1184 26.9663 12.6683 26.8838 12.0777C26.7978 11.5468 26.5732 11.1518 26.208 10.9798Z" fill="white"/>
<path fill-rule="evenodd" clip-rule="evenodd" d="M29.1905 10.6739V11.1522C29.1062 11.2092 29.0772 11.2092 29.022 11.2092C28.9359 11.2364 28.8516 11.3206 28.7964 11.4338C28.7122 11.6005 28.656 11.8841 28.6279 12.2228C28.5718 12.5843 28.5718 12.866 28.6279 12.9792C28.656 13.1187 28.7122 13.2021 28.7964 13.2854C28.8806 13.3434 28.9649 13.3986 29.0772 13.3986H29.1905V13.8787H29.022C28.5718 13.8217 28.233 13.7057 27.9531 13.3986C27.7275 13.1749 27.5862 12.7265 27.7003 12.0779C27.7275 11.5181 27.9531 11.125 28.261 10.9003C28.5437 10.7028 28.7964 10.6186 29.1905 10.6739ZM29.3861 10.6739H29.1905V11.1522C29.2466 11.1522 29.2747 11.1522 29.3309 11.2092C29.4151 11.2092 29.4994 11.2092 29.6126 11.2917C29.6959 11.3206 29.7231 11.4338 29.7811 11.5471C29.8092 11.6848 29.8092 11.9955 29.7811 12.3614C29.7231 12.7265 29.6959 12.9792 29.6126 13.1187C29.5564 13.2573 29.4722 13.3434 29.3861 13.3434C29.3309 13.3986 29.2466 13.3986 29.1905 13.3986V13.8787C29.5564 13.934 29.8644 13.8217 30.118 13.7057C30.455 13.4837 30.6534 13.0345 30.7096 12.442C30.7956 11.8841 30.7096 11.4338 30.4007 11.125C30.1733 10.9003 29.8092 10.7028 29.3861 10.6739Z" fill="white"/>
<path fill-rule="evenodd" clip-rule="evenodd" d="M32.0873 11.2065L31.8627 11.6821L33.7758 12.4946C33.2423 12.6658 32.7902 12.8905 32.3971 13.1994C32.0049 13.5672 31.7232 13.9313 31.5529 14.3245L32.3691 14.6333C32.4533 14.3806 32.6218 14.156 32.8763 13.819C33.1553 13.5672 33.466 13.3407 33.8311 13.1161C34.169 12.9458 34.5349 12.808 34.7877 12.7238L34.9851 12.3017L32.0873 11.2065Z" fill="white"/>
<path fill-rule="evenodd" clip-rule="evenodd" d="M11.5045 12.0776C11.2807 11.8267 10.7481 11.2913 10.1828 10.9C9.67919 10.4778 9.14295 10.2269 8.83314 10.4498C8.52422 10.6735 8.60846 10.7876 8.58223 11.0667C8.49616 11.2361 8.35572 11.3774 8.21441 11.5178C8.04592 11.6573 7.65281 11.9109 7.45626 12.1899C7.42726 12.3611 7.14551 12.2769 7.11833 12.4173C7.06127 12.5287 6.97702 12.6419 7.03232 12.7542C7.20258 13.343 8.43997 14.5523 8.43997 14.5523C8.43997 14.5523 9.03152 15.1421 9.03152 15.0868C9.42463 15.5352 9.87392 15.9002 9.98811 15.9845C10.2118 16.0108 10.4935 15.9845 10.4356 15.9002C10.2118 15.4772 9.59224 15.0868 9.34038 14.72C8.97445 14.2435 8.58223 13.8784 8.21441 13.4255C8.13199 13.343 8.04592 13.1746 7.96167 13.0342C7.90555 12.9789 7.90555 12.8657 7.96167 12.7262C7.9898 12.6419 8.13199 12.497 8.27148 12.3041C8.43997 11.9951 8.72171 11.6845 8.83314 11.3774C8.94545 11.2913 9.11394 11.1518 9.11394 11.1518C9.25525 11.0114 9.50887 11.0667 9.65018 11.1246C9.81962 11.1518 10.3242 11.6002 10.9428 12.2225C11.364 12.6419 11.4791 12.5839 11.5887 13.0613C11.6476 13.257 11.4202 13.2017 11.4202 13.2851C11.3378 13.5125 11.3378 13.7054 11.788 13.8213C11.8713 13.8784 12.0407 13.959 12.1241 13.8784C12.1802 13.8213 12.1241 13.7344 12.096 13.5695C11.8985 13.0342 12.0117 12.8104 11.5045 12.0776Z" fill="white"/>
<path fill-rule="evenodd" clip-rule="evenodd" d="M9.36764 12.5273C9.36764 12.4159 9.28168 12.2756 9.14229 12.2213C8.94492 12.1887 8.60816 12.6667 8.66431 12.7527C8.66431 12.8912 8.72134 13.0324 8.80553 12.9772C8.88972 12.9772 9.42378 12.7527 9.36764 12.5273Z" fill="white"/>
<path fill-rule="evenodd" clip-rule="evenodd" d="M10.2616 12.9494C10.036 12.9802 9.7833 13.0355 9.72806 13.0355C9.55868 13.2583 9.50162 13.3996 9.24793 13.6505C9.27511 13.6505 9.19087 13.8797 9.27512 13.9603C9.33312 14.1016 9.47444 14.1868 9.64293 14.2711C9.7833 14.3281 10.1203 14.4106 10.2616 14.0464C10.3168 13.8797 10.0913 13.791 9.98079 13.7357V13.6505H10.1203C10.1203 13.6243 10.4283 13.7357 10.5143 13.7357C10.6276 13.5137 10.7961 13.2031 10.6276 12.9494C10.5143 12.8117 10.4283 12.8942 10.2616 12.9494Z" fill="white"/>
<path fill-rule="evenodd" clip-rule="evenodd" d="M19.6262 4.04604C19.6805 4.01616 19.6805 4.01616 19.7393 3.96185C19.542 3.73734 19.2895 3.34266 19.2053 3.37163C19.1464 3.42684 19.1193 3.42684 19.0622 3.56806C18.9799 3.71019 19.0061 3.81972 19.2895 4.01616C19.4279 4.04604 19.5121 4.04604 19.6262 4.04604Z" fill="white"/>
<path fill-rule="evenodd" clip-rule="evenodd" d="M21.6553 4.35407C21.6825 4.41567 21.7396 4.4981 21.7396 4.58235C21.6825 4.77801 21.5983 4.86225 21.5422 4.94649C21.4579 5.08871 21.514 5.25539 21.5983 5.31155C21.9081 5.39761 21.9643 4.88852 21.9643 4.46911C21.9643 4.27345 21.9081 4.10315 21.9081 3.96546C21.9643 3.82325 22.2161 3.71364 22.2741 3.74082C22.3021 3.88032 22.3565 4.10315 22.4978 4.33143C22.582 4.55155 22.8085 4.77801 22.8927 4.80699C23.2868 4.94649 23.1165 4.6376 23.1165 4.35407C23.1165 4.33143 23.0612 4.33143 23.0322 4.33143C22.9208 4.33143 22.8366 4.35407 22.7505 4.27345C22.7234 4.24537 22.4426 3.65838 22.4426 3.57142C22.4978 3.48718 22.7234 3.37486 22.7505 3.26253C22.8085 3.14749 22.7505 2.98172 22.7234 2.98172C22.6092 3.03878 21.9923 3.74082 21.9081 3.82325C21.8257 3.88032 21.7396 3.88032 21.6825 3.82325C21.6553 3.79426 21.5983 3.48718 22.0766 2.8395C22.2161 2.61666 22.188 2.61666 22.0766 2.53061C21.9923 2.50344 21.8791 2.61666 21.7396 2.61666C21.5983 2.61666 21.514 2.58586 21.514 2.53061C21.4579 2.44818 21.514 2.30777 21.4579 2.22353C21.3737 1.99707 21.0077 2.13928 20.8401 2.36303C20.6707 2.58586 20.1372 3.5986 20.36 3.79426C20.5864 3.90749 20.8129 3.43011 21.0077 3.20546C21.2341 2.98172 21.4579 2.98172 21.514 2.98172C21.7396 2.98172 21.2341 3.74082 21.4298 4.33143C21.4298 4.46911 21.2052 4.6376 21.0639 4.55155C21.0639 4.55155 20.8401 4.18921 20.6707 4.10315C20.5864 4.10315 20.4451 4.46911 20.5864 4.6376C20.6707 4.86225 21.1209 4.77801 20.4451 5.67932C20.2758 5.84418 20.2758 6.10145 20.2758 6.29532C20.2758 6.548 20.36 6.77268 20.5294 6.77268C20.7549 6.82792 20.8972 6.548 20.9244 6.46199C21.0077 6.38133 21.1481 6.0172 21.2052 5.61953C21.2341 5.34235 21.1481 5.08871 21.2341 4.86225C21.3455 4.69286 21.4579 4.55155 21.6553 4.35407Z" fill="white"/>
<path fill-rule="evenodd" clip-rule="evenodd" d="M19.4603 5.02833C19.685 4.71943 19.6008 4.4658 19.2366 4.24205C19.1233 4.18589 19.2094 4.49478 19.2094 4.71943C19.2366 4.77469 19.2094 5.02833 19.2094 5.11257C19.1505 5.22489 19.2094 5.53379 19.4603 5.02833Z" fill="white"/>
<path fill-rule="evenodd" clip-rule="evenodd" d="M19.913 7.29948V6.68075C19.8559 6.54032 19.6014 6.20338 19.3767 5.52943C19.3196 5.38993 19.1511 5.38993 19.1511 5.52943C19.1511 5.61186 19.4329 6.45432 19.4609 6.98968C19.5171 7.44167 19.547 7.88914 19.6014 8.33755C19.6312 8.59029 20.0534 9.09752 20.1376 9.0414C20.221 9.01057 20.2762 8.92727 20.1657 8.50604C20.0797 8.11564 19.9954 7.71977 19.913 7.29948Z" fill="white"/>
<path fill-rule="evenodd" clip-rule="evenodd" d="M24.8053 3.73994C24.751 3.71277 24.665 3.79339 24.5807 3.79339C24.2156 3.82238 23.9067 3.87944 23.654 3.82238C23.5679 3.82238 23.4565 3.79339 23.4565 3.71277C23.4284 3.65751 23.4565 3.57055 23.4565 3.42924C23.4565 3.345 23.4284 3.20459 23.3442 3.20459C23.202 3.20459 23.0624 3.345 23.0335 3.42924C22.9221 3.51348 22.894 3.57055 22.894 3.82238C22.8378 3.9646 22.8378 4.04884 22.9221 4.10228C23.0335 4.18834 23.2591 4.18834 23.4565 4.18834C23.8787 4.2445 24.3551 4.33055 24.5254 4.2445C24.7211 4.18834 24.8896 4.04884 24.9466 4.01894C24.9756 3.90662 24.9756 3.79339 24.8053 3.73994Z" fill="white"/>
<path fill-rule="evenodd" clip-rule="evenodd" d="M23.3445 4.99745C23.2022 4.94129 23.118 5.02644 22.9785 5.16865C22.8381 5.30634 22.9224 5.86797 22.752 6.09624C22.752 6.06725 22.6678 6.012 22.6107 5.86797C22.5836 5.78553 22.5836 5.67411 22.4441 5.61433C22.358 5.55816 22.358 5.70129 22.2756 5.78553C22.1343 5.98119 22.05 6.09624 21.9938 6.14697C21.7683 6.23392 21.8806 5.78553 21.684 5.67411C21.5998 5.5319 21.4314 5.78553 21.4594 6.012C21.4594 6.14697 21.5437 6.37615 21.5437 6.51205C21.5998 6.65607 21.5998 6.85174 21.5998 6.9088C21.684 7.13342 21.7411 7.41334 21.8806 7.58453C21.9938 7.7512 22.1895 7.72226 22.0781 7.30191C22.0781 7.07635 21.8806 6.68325 21.9938 6.45674C22.0781 6.31908 22.2756 6.31908 22.358 6.43139C22.4441 6.54282 22.4441 6.82273 22.5265 6.85174C22.6107 6.99211 22.7521 6.82273 22.81 6.68325C22.8381 6.65607 22.8381 6.45675 22.9224 6.23392C22.9224 6.09624 23.0338 6.012 23.0627 5.86797C23.118 5.70129 23.118 5.55816 23.2594 5.55816C23.4287 5.5319 23.512 5.75836 23.5963 5.86797C23.5963 6.012 23.6543 6.09624 23.6815 6.29008C23.7385 6.43139 23.6815 6.85174 23.6815 7.13342C23.6543 7.27385 23.6543 7.35992 23.6543 7.41334C23.7385 7.49846 23.8228 7.52747 23.907 6.9088C23.9623 6.23392 23.9913 6.23392 23.907 5.75836C23.907 5.3924 23.512 5.02643 23.3445 4.99745Z" fill="white"/>
<path fill-rule="evenodd" clip-rule="evenodd" d="M36.5924 3.90716C36.3658 4.01949 35.8595 4.35374 35.5515 4.77767C35.2145 5.17353 35.1556 5.31122 35.0134 5.22788C34.9029 5.22788 34.931 5.22788 34.7055 5.08838C34.4527 5.00233 34.2552 5.00233 34.0596 4.94617C33.8621 4.88819 33.6094 5.08838 33.5541 5.22788C33.4681 5.39727 33.5541 5.39727 33.6918 5.48151C33.7779 5.56304 34.2552 5.70617 34.3975 5.70617C34.4808 5.67899 34.6212 5.70617 34.594 5.79041C34.594 5.84385 34.0043 6.29499 33.7779 6.46166C33.5541 6.60385 33.1039 6.91366 33.0197 7.05226C32.8493 7.22258 33.0749 7.36477 33.2153 7.36477C33.2978 7.36477 33.5233 7.19357 33.8621 7.08127C34.2552 6.99702 34.537 6.82759 34.7055 6.6881C34.9029 6.54767 35.2399 6.15184 35.3241 6.10111C35.4364 6.07213 36.1684 6.60385 36.3658 6.60385C36.4492 6.54767 36.5924 6.4363 36.7028 6.32394C36.8441 6.21072 36.7581 6.07213 36.5924 6.07213C36.394 6.01687 35.9999 5.87284 35.7752 5.76323C35.5515 5.61921 35.7454 5.53677 35.8595 5.39727C35.9709 5.25506 36.5072 4.77767 36.7581 4.49777C37.0679 4.24504 37.1259 4.04938 37.0679 4.01949C37.0126 3.87999 36.8161 3.87999 36.5924 3.90716Z" fill="white"/>
<path fill-rule="evenodd" clip-rule="evenodd" d="M35.5225 7.07764C35.44 7.07764 35.3277 7.30319 35.2435 7.41456C35.2181 7.49975 35.3006 7.66824 35.3006 7.83673C35.3277 8.03416 35.5551 8.42551 35.6928 8.50975C35.7789 8.56682 35.8631 8.42551 36.0605 8.17459C36.2272 7.89285 36.2272 7.89285 36.0035 7.58582C35.8332 7.30319 35.6928 7.07764 35.5225 7.07764Z" fill="white"/>
<path fill-rule="evenodd" clip-rule="evenodd" d="M49.0236 12.4166C48.9393 12.2218 48.3768 12.0506 48.2346 11.9673C48.0099 11.883 48.1784 11.7408 48.1784 11.6838C48.1522 11.5995 47.9556 11.6566 47.8704 11.546C47.7862 11.4618 47.7862 11.3196 47.8424 11.2906C47.8424 11.2353 47.8704 11.2082 47.7862 11.1239C47.7019 11.0107 47.7019 11.1239 47.4203 11.1239C47.1675 11.1239 47.1675 11.1511 47.1675 11.2082C47.1675 11.2906 47.1675 11.3767 47.0262 11.4328C46.8577 11.4618 46.7173 11.517 46.634 11.6566C46.4917 11.8259 46.4075 11.883 46.4075 11.9102C46.4075 11.9673 46.4917 11.9944 46.5488 11.9944C46.634 11.9944 46.942 11.8259 47.0815 11.7698C47.1675 11.7408 47.4764 11.6566 47.5334 11.6838C47.6177 11.7408 47.6177 11.883 47.5606 11.883C47.5334 11.9102 47.4764 11.9102 47.394 11.883C47.2518 11.883 46.8867 11.9944 46.7716 12.0769C46.634 12.1892 46.576 12.3033 46.6602 12.3604C46.7716 12.4963 47.5334 12.4963 47.7019 12.441C47.7291 12.441 47.7862 12.2218 48.0099 12.2218C48.1522 12.2218 48.3207 12.3604 48.4049 12.4166C48.4873 12.4963 48.5743 12.4963 48.5453 12.5832C48.5453 12.6675 48.4049 12.6675 48.2627 12.7255C48.1784 12.7255 48.1522 12.6675 48.1522 12.5832C48.1522 12.4963 48.0951 12.441 47.9556 12.4963C47.8424 12.4963 47.6449 12.6412 47.4764 12.6675C47.2518 12.7255 46.8025 12.7535 46.7173 12.7535C46.634 12.7535 46.1837 12.0769 46.0416 11.9944C45.96 11.883 46.0135 11.8259 46.0135 11.7408C46.0135 11.6838 46.8577 11.2082 47.1095 11.066C47.4203 10.9237 47.4764 10.7869 47.4764 10.6728C47.4203 10.4771 47.1095 10.5623 46.942 10.7018C46.7716 10.7869 46.3504 11.1239 46.2662 11.2353C46.1548 11.3196 46.0135 11.517 45.9293 11.4618C45.7888 11.4328 45.7888 11.1511 45.7336 11.066C45.7046 10.979 45.6203 10.979 45.479 10.979C45.2815 11.0107 45.1973 11.2082 44.7779 11.4328C44.5786 11.546 44.4962 11.546 44.4119 11.6566C44.3549 11.6838 44.3549 11.8259 44.4119 11.883C44.4962 11.9673 44.7199 11.9102 44.8604 11.883C44.9735 11.883 45.0859 11.7698 45.1702 11.7408C45.1973 11.7408 45.479 12.0506 45.6475 12.1892C45.8178 12.3033 46.4075 13.0335 46.4917 13.0606C46.8025 13.2563 47.1675 13.7889 47.1675 13.8206C47.1947 13.8777 47.2518 13.9583 47.1675 14.0172C47.0262 14.0996 47.0262 14.0996 47.0262 14.1848C47.0815 14.2427 47.4203 14.4936 47.5334 14.5516C47.6449 14.5516 47.9556 14.5516 48.0099 14.4085C48.0951 14.3823 47.9556 14.269 47.9266 14.1848C47.8424 14.0996 47.8424 13.8777 47.7019 13.7889C47.5334 13.7047 46.942 12.9782 46.942 12.9782C46.942 12.9474 47.336 12.865 47.4203 12.8921C47.5334 12.9474 47.5334 13.1177 47.7019 13.1738C47.7862 13.1738 47.7862 13.1177 47.8704 13.1177C48.0099 13.0606 48.0099 13.1177 48.4602 13.1177C48.9104 13.0606 48.9393 13.0335 49.0236 12.865C49.1078 12.7535 49.1631 12.5832 49.0236 12.4166Z" fill="white"/>
<path fill-rule="evenodd" clip-rule="evenodd" d="M46.0425 13.4893C46.0145 13.4041 45.48 12.8162 45.3396 12.732C45.1983 12.674 45.1141 12.674 45.0298 12.732C44.9745 12.8162 44.8613 12.9539 44.8061 12.9847C44.7789 13.04 44.9456 13.1803 45.0298 13.2075C45.1141 13.2909 45.2554 13.4893 45.3396 13.5183C45.48 13.5753 45.6485 13.5183 45.6213 13.655C45.6213 13.7402 45.3396 13.9648 45.1983 13.9394C44.9456 13.9394 44.7209 13.5183 44.4392 13.2909C44.3558 13.2075 44.1865 13.2075 44.1031 13.2075C44.0189 13.1242 43.9056 13.2075 43.9056 13.2628C43.9056 13.3488 44.0189 13.4312 44.0189 13.5183C44.0469 13.655 44.1312 13.7112 44.2716 13.7954C44.4972 13.9394 44.7209 14.1641 44.8061 14.2492C44.8613 14.3326 44.9456 14.415 44.6638 14.5582C44.4392 14.6976 44.1312 14.7819 43.8767 14.6976C43.5959 14.5582 43.4264 14.3887 43.3984 14.1913C43.3422 14.0509 43.2589 14.2492 43.2009 14.3887C43.1737 14.5001 43.0324 14.6976 43.0632 14.7819C43.1166 14.8643 43.1166 14.9195 43.3422 15.0066C43.5687 15.0346 44.1031 15.175 44.3287 15.1479C44.806 15.0926 44.9745 14.7257 45.0869 14.7257C45.1141 14.7257 45.1983 14.8643 45.2826 14.9195C45.3396 14.9504 45.48 15.2321 45.6485 15.2321C45.7898 15.2321 45.961 15.175 45.874 14.8643C45.8188 14.7257 45.7055 14.7257 45.5081 14.4712C45.5081 14.3887 45.6213 14.1913 45.6485 14.1913C45.7055 14.2492 46.2672 14.2492 46.3515 14.1913C46.4085 14.1641 46.4927 13.8842 46.4656 13.8271C46.4656 13.7402 46.0987 13.5183 46.0425 13.4893Z" fill="white"/>
<path fill-rule="evenodd" clip-rule="evenodd" d="M16.1145 27.0226C16.0575 27.1087 16.0014 27.1639 15.9443 27.2201C15.4941 27.9502 14.8754 30.3932 15.0728 31.5174C15.2703 32.5564 15.3546 33.2304 16.1145 34.1588V27.0226ZM16.1145 17.1915V19.4661C15.6644 19.8882 15.1861 19.9724 15.3809 20.2505C15.4941 20.4761 15.7758 20.4498 16.1145 20.5612V22.1047C15.9723 22.0495 15.8048 22.0495 15.6363 22.0495C14.7069 22.1047 14.1724 22.584 14.1724 22.978C14.1724 23.3992 14.6226 28.0878 14.4832 28.8769C14.3409 29.6921 13.3282 32.3308 13.638 33.6235C14.0039 34.86 15.2984 36.0394 15.6073 36.0394C15.7196 36.0113 15.9153 35.9243 16.1145 35.8401V40.5061C15.0728 39.3575 13.0483 36.9941 12.4006 35.5892C11.4992 33.6525 12.0908 32.4721 12.3454 30.5047C12.6253 28.539 12.541 25.3631 12.2593 23.6221C11.9504 21.236 12.6542 21.0694 13.4143 20.3085C14.1153 19.6083 14.8754 19.4661 15.0728 18.4271C15.1571 17.667 14.6226 17.3292 14.5665 16.9116C14.5094 16.5728 15.5521 16.7413 16.1145 17.1915ZM16.1145 19.4661V17.1915C16.226 17.2757 16.3383 17.388 16.3945 17.5003C16.7595 18.1163 16.7867 18.7903 16.2541 19.3238C16.226 19.3818 16.1698 19.4379 16.1145 19.4661ZM16.1145 22.1047C16.62 22.2198 16.957 22.584 17.2097 22.6673V22.7262V21.3502C17.1527 21.236 17.0965 21.208 17.0141 21.1274C16.7043 20.7596 16.3655 20.6192 16.1145 20.5612V22.1047ZM16.1145 34.1588C16.1698 34.2449 16.226 34.3001 16.3102 34.3826C16.563 34.6335 16.928 34.8319 17.2097 35.0003V32.6678C17.1527 32.5854 17.0965 32.4984 17.0965 32.4721C16.7867 31.9105 16.4515 30.8444 16.6771 29.6078C16.8456 28.4275 16.7595 28.0308 17.1527 27.8107L17.2097 27.7799V25.9003C16.7595 26.3486 16.3383 26.7418 16.1145 27.0226V34.1588ZM16.1145 40.5061C16.5086 40.9572 16.7595 41.2081 16.7595 41.2081C16.7595 41.2081 16.62 41.6583 16.4515 42.0233C16.3102 42.4183 16.6771 42.5007 16.8746 42.5007C16.928 42.5007 17.0965 42.3323 17.2097 42.1076V38.1183C16.7867 37.8646 16.4515 37.4162 16.3102 37.0503C16.226 36.7169 15.86 36.4878 16.4515 36.35C16.563 36.35 16.8746 36.35 17.2097 36.379V35.6199C17.0141 35.6752 16.7867 35.6752 16.62 35.6752C16.4208 35.7024 16.2541 35.7594 16.1145 35.8401V40.5061ZM17.4072 38.2324V41.6855C17.3511 41.7697 17.2668 41.9382 17.2097 42.0515V38.1183C17.2668 38.1763 17.3511 38.2025 17.4072 38.2324ZM17.4072 35.6199V36.4062C17.3511 36.4062 17.2668 36.4062 17.2097 36.379V35.6199H17.4072ZM17.4072 33.0075V35.1118L17.2097 35.0003V32.6678C17.2668 32.7819 17.3511 32.8943 17.4072 33.0075ZM17.4072 25.7028V27.6413C17.3511 27.6684 17.2668 27.7246 17.2097 27.7799V25.9003L17.4072 25.7028ZM17.4072 21.6564V22.7262C17.3511 22.7534 17.2958 22.7262 17.2097 22.7262V21.3502C17.2958 21.4335 17.3511 21.5459 17.4072 21.6564ZM20.2751 43.1475C20.7543 43.3441 21.2045 43.4845 21.5415 43.5688V40.8168C21.2888 40.7597 21.0632 40.6166 21.2335 40.1953C21.2888 40.0015 21.4292 39.776 21.5415 39.5504V38.1763C21.2045 38.6826 20.6701 39.2959 20.2751 39.5504V43.1475ZM21.5415 23.4862C21.0632 23.4862 20.5287 23.4861 20.2751 23.4282V24.2969C20.6701 24.1547 21.2045 24.0188 21.5415 24.0188V23.4862ZM20.2751 32.3308C20.5858 31.1514 21.007 29.8606 21.2045 29.1595C21.2335 29.0725 21.4292 29.1006 21.5415 29.0172V28.1749C21.5134 28.1749 21.4572 28.1177 21.5134 28.0308C21.5134 28.0064 21.5415 27.8931 21.5415 27.8107V26.0388V26.0669C21.4292 26.4338 21.2888 26.8804 21.1203 27.3306C20.8965 28.1178 21.1475 28.3433 20.5016 28.4855H20.2751V29.1595C20.4445 29.1595 20.5858 29.1595 20.5287 29.1876C20.5016 29.3252 20.4445 29.7763 20.2751 30.309V32.3308ZM21.5415 34.6099C21.2335 34.5511 20.6701 34.6099 20.2751 34.6099V35.2803C20.5016 35.3093 20.6972 35.3093 20.8394 35.3645C21.1475 35.3645 21.2888 35.3926 21.5415 35.8972V35.9551V34.6099ZM21.5415 43.5688V40.8168C21.6819 40.844 21.8784 40.8439 21.9917 40.8439C22.0759 40.8439 22.1874 40.8992 22.2734 40.8992V43.6792C22.0759 43.6792 21.9075 43.6792 21.739 43.624C21.6819 43.624 21.5976 43.5688 21.5415 43.5688ZM21.5415 27.8107V26.0388C21.8784 25.1412 22.0759 24.4944 22.0759 24.1022C22.0759 24.0188 21.9075 23.9599 21.5415 24.0188V23.4862H22.2734V25.7028C22.0479 26.2916 21.7661 27.1087 21.5415 27.8107ZM21.5415 29.0172C21.5976 29.0172 21.6819 29.0172 21.739 28.9303C21.7661 28.8497 21.825 28.539 21.7661 28.3433C21.7661 28.2038 21.6547 28.2038 21.5415 28.1749V29.0172ZM22.2734 35.1978V38.8511C22.0479 38.9888 21.7661 39.2406 21.5415 39.5504V38.1763C21.7661 37.8936 21.9075 37.6961 21.9075 37.5856C21.9917 37.2749 21.7661 36.4878 21.5415 35.9551V34.6099C21.5976 34.6099 21.6547 34.6335 21.6819 34.6335C21.9636 34.7476 22.0759 34.8319 22.2734 35.1978ZM22.2734 43.6792C22.6086 43.7082 22.9764 43.7644 23.2572 43.7644V40.8992C23.0316 41.0414 22.6657 40.9572 22.2734 40.8992V43.6792ZM22.2734 25.7028C22.4419 25.0859 22.5814 24.6928 22.6086 24.6076C22.6657 24.4636 23.0316 24.4944 23.2572 24.4944V23.6221C23.1158 23.5396 22.7227 23.4862 22.2734 23.4862V25.7028ZM23.2572 36.8818C22.7499 36.9371 22.5814 36.9371 22.3857 35.9551C22.3559 35.5892 22.3015 35.3645 22.2734 35.1978V38.8511C22.3015 38.794 22.3857 38.7941 22.3857 38.7941C22.5814 38.7941 22.8079 39.5241 22.8921 39.8593C22.9764 40.055 23.1448 40.3077 23.2572 40.5351V40.5912V38.2324C23.2001 38.0902 23.1448 38.005 23.2572 37.8646V36.8818ZM23.2572 27.4157C23.0606 27.8659 22.8359 28.317 22.7499 28.539C22.3015 29.7473 22.2154 30.8996 22.4972 31.7973C22.7499 32.6415 23.0316 33.2304 23.2572 33.6525V33.7077V27.4157ZM23.2572 43.7644V40.8992C23.3423 40.8168 23.3423 40.7307 23.2572 40.5912V38.2577C23.2862 38.3158 23.3423 38.4 23.3704 38.5386C23.5099 38.9317 23.6793 39.2116 23.9048 39.9707C24.1005 40.4508 24.2137 40.7307 24.3532 40.8439V45.2255C24.1005 45.4239 23.7363 45.0833 23.7363 45.0833C23.7363 45.0833 23.8206 44.8306 23.8768 44.6077C23.9601 44.4655 23.9601 44.297 24.0453 44.1304C24.1295 43.8504 23.8206 43.8504 23.2572 43.7644ZM23.2572 24.4944C23.2862 24.4944 23.2862 24.4944 23.3423 24.4636C23.5661 24.3838 23.6521 23.8775 23.2572 23.6221V24.4944ZM24.3532 25.3631V27.7799C24.0453 28.0308 23.9601 28.8497 23.9048 29.3252C23.7635 30.2827 24.0453 30.983 24.3532 31.5736V38.034C24.269 38.005 24.1866 38.005 24.1005 37.9471C23.5661 37.6961 23.5099 37.5857 23.2862 37.8646H23.2572V36.8818C23.2862 36.8818 23.2862 36.8265 23.3423 36.8265C23.8768 36.8265 24.298 36.8265 24.298 36.379C24.298 35.9841 24.1295 35.1978 23.9048 34.86C23.7363 34.5511 23.5099 34.2141 23.2572 33.7077V27.4157C23.4546 26.9093 23.6793 26.4338 23.8206 26.1512C23.9891 25.758 24.1295 25.6185 24.3532 25.3631ZM24.3532 21.208V22.2759C24.2137 22.1337 24.1295 21.9698 24.1866 21.6002C24.2137 21.4335 24.269 21.2941 24.3532 21.208ZM24.3532 45.2255C24.3532 45.1974 24.4103 45.1974 24.4103 45.1974C24.4955 45.0571 24.606 44.7753 24.663 44.4375C24.7491 44.0181 24.8334 43.9066 24.8334 43.9066C24.8334 43.9066 25.424 43.9338 26.0979 43.9863V41.4345C25.9847 41.4038 25.9004 41.3485 25.8733 41.2634C25.5915 40.8168 25.8162 40.2243 26.0979 39.4662V37.2749C25.8162 37.3302 25.7338 36.5168 25.7338 36.0665C25.6767 35.6752 25.5634 35.6199 25.6477 35.0003C25.6477 34.7775 25.8732 34.9179 26.0979 35.0846V33.6235C25.6477 33.3427 25.1133 32.8943 24.8035 32.4169C24.663 32.1932 24.4954 31.9105 24.3532 31.6025V31.5736V38.034C24.7491 38.2577 24.9737 38.4544 25.1975 38.5386C25.4792 38.6826 25.5634 38.8765 25.3678 39.6636C25.1395 40.4508 25.029 40.9572 24.7192 40.9816C24.5788 40.9816 24.4375 40.9816 24.3532 40.8439V45.2255ZM26.0979 21.9933C25.8732 21.7424 25.7338 21.4607 25.5634 21.3502C25.3397 21.15 24.663 20.8166 24.3532 21.208V22.2759C24.5788 22.4444 24.9448 22.4155 25.3397 22.555C25.8162 22.6673 25.9847 23.1193 25.8733 23.3421C25.4792 24.0188 25.029 24.4636 24.606 24.9989C24.4955 25.1701 24.4103 25.2816 24.3532 25.3631V27.7799C24.4103 27.7246 24.4103 27.6684 24.4954 27.6684C24.8334 27.586 25.5915 28.539 26.0979 28.8769V27.1358C25.789 26.5715 25.424 25.816 25.7338 25.1412C25.789 24.9147 25.9004 24.7208 26.0979 24.4944V21.9933ZM27.588 30.7284V35.7305C27.4766 35.6752 27.3652 35.7305 27.2791 35.7594C27.0536 35.8401 26.9693 36.2622 26.8008 37.0213C26.6604 37.8094 26.5762 37.7804 26.2664 38.8511C26.2111 39.0187 26.1839 39.2406 26.0979 39.4381V39.4662V37.2749C26.3524 37.2477 26.4086 36.4878 26.4367 36.1526C26.5762 35.6199 26.6604 35.5067 26.4086 35.3093C26.3524 35.2803 26.2111 35.1978 26.0979 35.0846V33.6235V33.6525C26.3524 33.792 26.5762 33.8744 26.7447 33.8744C26.9422 33.8744 27.3353 32.05 27.588 30.7284ZM27.588 28.3986V29.1876C27.2511 29.1006 26.6323 29.1876 26.2664 29.0172C26.2111 28.9882 26.1839 28.9303 26.0979 28.8769V27.1358V27.1893C26.2111 27.4438 26.4086 27.6684 26.4919 27.8659C26.7166 28.1749 27.1659 28.3433 27.588 28.3986ZM26.0979 43.9863V41.4345V41.4907C26.4367 41.603 27.0536 41.517 27.588 41.4038V44.018H27.5037C27.1949 44.018 26.6323 44.018 26.0979 43.9863ZM27.588 22.6673V23.3992C27.3652 23.4861 27.1949 23.5659 26.9693 23.7081C26.6604 23.931 26.3524 24.1855 26.0979 24.4944V21.9933C26.3524 22.4155 26.6323 22.7534 26.8008 22.7262C26.9693 22.7262 27.2791 22.6673 27.588 22.6673ZM27.588 44.018C28.0391 44.018 29.0238 43.9863 29.9242 43.9863H29.9505V41.5723H29.9242C29.5012 41.7126 29.2484 41.603 29.3879 41.3485C29.474 41.1818 29.7249 40.8439 29.9242 40.7307H29.9505V39.6084C29.9505 39.6084 29.9242 39.6084 29.9242 39.6636C29.8662 40.055 28.9378 40.8992 28.4051 41.1818C28.2348 41.2081 27.8978 41.3485 27.588 41.4038V44.018ZM29.9505 36.0665L29.9242 36.0394C29.3879 35.3926 27.6451 34.4116 27.6451 34.4116C27.588 34.3273 27.588 34.2449 27.588 34.1588V33.9341C27.6451 32.8635 28.4051 30.6206 28.5455 29.7763C28.5455 29.636 28.5736 29.4675 28.6297 29.1876C28.714 28.9882 29.2765 29.1876 29.1615 28.4275C29.1615 28.259 29.0238 27.8659 29.0238 27.7799C29.3327 26.8007 29.6425 25.7028 29.9242 24.9147L29.9505 24.8594V22.2198H29.9242C29.3879 22.2198 28.8825 22.2759 28.4893 22.4444C28.2348 22.555 27.8978 22.6419 27.588 22.6673V23.3992C27.8978 23.3131 28.2628 23.2018 28.714 23.0351C29.474 22.8095 29.5582 23.3132 29.5582 23.3132C29.5582 23.3132 29.6425 23.7371 29.1923 24.9437C28.7421 26.2091 28.4051 28.259 28.0953 28.3986C27.9549 28.4275 27.7864 28.4275 27.588 28.3986V29.1876C27.7293 29.1876 27.7864 29.2392 27.7864 29.3252C27.7864 29.4104 27.7293 29.9458 27.588 30.6206V35.7305C27.8136 35.7594 28.0391 36.0394 28.348 36.1526C28.7982 36.4334 29.108 36.572 29.1923 37.5014C29.2765 38.4544 29.8662 39.102 29.9242 39.5241H29.9505V36.0665ZM29.9505 24.8594C30.1751 24.2407 30.3436 23.7371 30.4025 23.6529C30.571 23.3421 31.1589 23.1773 31.3301 23.1193C31.8355 23.0903 31.7241 22.8095 31.4977 22.555C31.3853 22.4155 30.8816 22.334 30.2612 22.2759C30.1198 22.2198 30.0356 22.2198 29.9505 22.2198V24.8594ZM32.3981 26.2916V30.2827C32.37 30.5916 32.2568 30.8996 32.2296 31.1514C32.1743 31.8263 32.2296 32.3308 32.3981 32.6415V38.765C32.1743 38.9317 31.9478 39.0757 31.7241 39.2406C31.1036 39.6084 31.1036 40.055 31.2458 40.5061C31.3029 40.8992 31.9478 41.2081 32.3981 41.2634V44.9166C32.1462 45.1974 31.7241 45.0009 31.7241 45.0009C31.7241 44.6911 31.6399 44.7753 31.7794 44.5217C31.8636 44.2155 31.9198 43.9863 31.9198 43.9863H29.9505V41.5723C30.4025 41.4038 30.4568 41.4038 30.5429 40.9816C30.571 40.6728 30.3164 40.6166 30.0927 40.6728C30.0356 40.6728 30.0084 40.6728 29.9505 40.7307V36.0665C30.0356 36.1245 30.0927 36.2087 30.0927 36.2948C30.3164 36.8818 30.571 38.9317 30.8509 38.9888C31.1036 39.0187 31.8355 38.1763 31.9478 37.7804C32.2296 36.9678 31.1036 36.0394 30.7666 35.4515C30.4025 34.86 29.8662 32.4721 30.4568 30.5047C30.7114 29.5517 31.6399 27.6413 32.3981 26.2916ZM32.3981 44.9166C32.4832 44.8306 32.5384 44.6911 32.5675 44.5217C32.6227 44.2391 32.6227 44.018 32.7069 43.7644C32.764 43.7082 33.0738 43.6792 33.6083 43.5398C33.7478 43.5398 33.861 43.4845 34.0032 43.4555V40.5912C33.861 40.5912 33.832 40.4209 33.832 40.0015C33.832 39.6926 33.9172 39.3249 34.0032 39.0187V36.7432L33.9453 36.7976C33.832 36.9678 33.7478 37.1074 33.6083 37.0503C33.467 37.0503 33.2967 36.8265 33.0186 36.2948C32.7912 35.8401 32.6798 35.2803 33.0738 34.86C33.2432 34.6932 33.4117 34.6099 33.6083 34.6099C33.7478 34.5511 33.861 34.6099 34.0032 34.6099V33.6235C33.861 33.5682 33.7478 33.5682 33.6083 33.5392C33.2967 33.5392 33.0738 33.3988 32.9343 33.3427C32.764 33.1723 32.5384 33.0075 32.3981 32.6678V32.6415V38.765C32.6798 38.5675 32.8773 38.4 33.1028 38.2577C33.2432 38.1763 33.5222 38.0902 33.6083 38.2577C33.6372 38.3456 33.6372 38.4833 33.6083 38.7089C33.553 38.7941 33.553 38.8511 33.553 38.8765C33.2432 39.6926 33.0738 41.2081 32.6227 41.2634H32.3981V44.9166ZM34.0032 24.2969C33.861 24.3838 33.7478 24.4944 33.6083 24.6076C33.3274 24.8304 33.1028 25.0587 32.9896 25.2815C32.8483 25.5343 32.6227 25.845 32.3981 26.2336V30.2827V30.2248C32.6227 29.1876 32.9896 28.1749 33.1028 27.9502C33.2967 27.6413 33.3827 27.8107 33.6083 28.0064C33.6907 28.0308 33.7478 28.1178 33.832 28.1178C33.861 28.1178 33.9453 28.1749 34.0032 28.2038V24.2969ZM34.0032 21.15C33.861 21.15 33.7478 21.15 33.6083 21.208C33.467 21.208 33.3827 21.236 33.2967 21.3502C32.7069 21.9091 33.0738 22.2198 33.6083 22.4155C33.7478 22.4444 33.861 22.4979 34.0032 22.4979V21.15ZM35.0703 33.0347V35.0846C34.7614 35.7304 34.6201 36.7432 34.4797 37.2749C34.3963 37.6391 34.2541 38.0902 34.1427 38.5675C34.0856 38.7089 34.0585 38.8511 34.0032 39.0187V36.7432C34.0585 36.6598 34.0856 36.572 34.1427 36.4878C34.1699 36.2622 34.227 35.9551 34.3112 35.5357C34.4797 34.9179 34.3674 34.7476 34.1427 34.6932C34.0856 34.6335 34.0585 34.6335 34.0585 34.6335L34.0032 34.6099V33.6235H34.1427C34.3963 33.6235 34.6754 33.5682 34.8457 33.4831C34.9299 33.4568 34.9861 33.2584 35.0703 33.0347ZM34.0032 43.4555V40.5912C34.0585 40.6166 34.0856 40.6166 34.1427 40.6166C34.3112 40.5912 34.5929 40.4508 35.0124 40.3077H35.0703V43.0089C34.7044 43.1756 34.3963 43.316 34.1427 43.4003C34.0856 43.4003 34.0585 43.4003 34.0032 43.4555ZM35.0703 23.5659V24.6076C34.9299 24.7208 34.8457 24.8594 34.7614 24.9437C34.4516 25.4781 34.2541 25.6185 34.3674 26.5715C34.3963 27.2753 34.7044 27.6684 35.0703 27.8931V28.8769C34.7614 28.7917 34.3963 28.4855 34.1427 28.317C34.0856 28.259 34.0585 28.2038 34.0032 28.2038V24.2969C34.0585 24.2407 34.0856 24.2407 34.1427 24.1855C34.3963 23.9599 34.7614 23.7932 35.0703 23.5659ZM35.0703 21.5168V22.8648C34.9018 22.7534 34.7044 22.6673 34.5359 22.6419C34.4516 22.584 34.2541 22.584 34.1427 22.555C34.0856 22.555 34.0585 22.555 34.0032 22.4979V21.15H34.1427C34.3963 21.208 34.7044 21.3502 34.9861 21.4607C34.9861 21.4607 35.0124 21.5168 35.0703 21.5168ZM35.0703 14.3263V14.6914C34.4516 14.3824 34.4516 14.185 35.0703 14.3263ZM35.0703 43.0089C35.2959 42.9229 35.5178 42.7807 35.7742 42.6964V39.9707C35.5504 40.0857 35.2959 40.2243 35.0703 40.3077V43.0089ZM35.7742 22.2759C35.6057 21.9698 35.323 21.6853 35.0703 21.5168V22.8648C35.2959 22.978 35.5178 23.1193 35.6881 23.2018C35.5178 23.3132 35.2959 23.4282 35.0703 23.5659V24.6076C35.2388 24.3838 35.5178 24.1547 35.7742 23.931V22.2759ZM35.7742 33.3427C35.6347 33.3146 35.6881 32.8635 35.7742 32.1352V28.0878C35.5504 28.1178 35.2959 28.0878 35.0703 27.8931V28.8769C35.1545 28.9303 35.2388 28.9882 35.323 28.9882C35.5178 28.9303 35.7443 28.8769 35.7742 28.8497V28.8769C35.7443 29.1595 35.5504 30.5047 35.3801 31.1225C35.2959 31.5736 35.2134 32.4984 35.0703 33.0347V35.0846C35.1545 34.86 35.2388 34.7476 35.3801 34.6335C35.5178 34.6099 35.6347 34.523 35.7742 34.465V33.3427ZM35.7742 14.5519C35.6881 14.5519 35.6347 14.4939 35.5504 14.4649C35.3801 14.4087 35.2134 14.3824 35.0703 14.3263V14.6914C35.2134 14.7756 35.323 14.8037 35.5178 14.9133C35.6057 15.0002 35.6881 15.0283 35.7742 15.0863V14.5519ZM17.4072 22.7262C17.6599 22.6972 17.7442 22.2198 17.4072 21.6564V22.7262ZM17.4072 27.6413V25.7028C18.3357 24.8594 19.2932 24.0188 19.2361 23.8476C19.2089 23.0903 18.8421 23.3421 18.3919 22.8648C18.054 22.3584 18.2515 21.4607 19.4318 22.1337C19.9671 22.4444 19.6003 23.0903 20.1365 23.3992C20.1646 23.4282 20.2199 23.4282 20.2751 23.4282V24.2969C20.1646 24.3259 20.0786 24.3839 19.9671 24.412C19.3756 24.8304 19.1229 24.8304 18.7569 25.45C18.083 26.6847 18.7569 26.8804 19.0097 27.4999C19.3756 28.2038 19.7697 28.4855 20.2751 28.4855V29.1595C19.9943 29.1595 19.6003 29.1876 19.3756 29.0725C18.9834 28.8497 18.6999 28.539 18.1382 27.8107C17.8574 27.4737 17.6328 27.5281 17.4072 27.6413ZM17.4072 41.6855V38.2324C17.4932 38.2577 17.5757 38.2867 17.688 38.3158C17.8302 38.3456 18.054 37.8646 18.1382 37.4162C18.2234 36.9678 18.4471 36.6598 18.2234 36.5168C18.1944 36.5168 17.8302 36.4633 17.4072 36.4062V35.6199C17.7442 35.6199 17.9969 35.6199 17.9969 35.5067C17.9969 35.4216 17.7442 35.2803 17.4072 35.1118V33.0075C18.083 33.8744 18.7841 34.2449 19.0097 34.2141C19.2932 34.1588 19.4598 32.6678 19.8548 31.7411C19.9943 31.3462 20.1646 30.8126 20.2751 30.309V32.3598C19.9671 33.5392 19.7434 34.523 19.8548 34.5511C19.9118 34.6099 20.0786 34.6099 20.2751 34.6099V35.2803C19.9118 35.2241 19.5459 35.2803 19.4598 35.4515C19.4318 35.6752 19.9943 36.4334 19.9118 36.7169C19.6845 37.1907 19.0658 36.6598 18.9834 36.9371C18.6999 37.7804 18.4471 38.6229 18.3919 38.8511C18.3629 39.2116 18.7569 39.1573 19.0658 39.3847C19.4318 39.5504 19.4598 39.9707 19.9943 39.7488C20.0786 39.6926 20.1646 39.6636 20.2751 39.5504V43.1475C19.1229 42.6412 17.9127 41.9382 17.4625 41.5723C17.4625 41.5723 17.4353 41.603 17.4072 41.6855ZM37.4047 38.7089V41.6855C37.3485 41.7435 37.2652 41.8005 37.2072 41.825C36.7017 42.1647 36.2226 42.4183 35.7742 42.6412V39.9707C36.5061 39.5241 37.151 38.9607 37.4047 38.7089ZM37.4047 33.2584V34.3273C37.3485 34.2721 37.2652 34.2449 37.2072 34.2449C36.815 34.2449 36.2226 34.3273 35.7742 34.465V33.3427C36.2796 33.4251 37.0115 33.2584 37.4047 33.2584ZM37.4047 22.4979V25.6185C37.2362 26.1512 37.0668 26.7137 36.8983 27.3306C36.8431 27.5579 37.2072 27.7799 37.2072 28.0308C37.151 28.8497 36.5912 28.7074 36.5332 28.9882C36.2226 30.1378 35.9698 31.2909 35.7742 32.1062V28.0878C35.8584 28.0308 35.9128 28.0308 35.9698 28.0308C36.2226 27.8931 36.3648 26.9646 36.5061 26.3486C36.6175 25.7028 37.0668 24.3838 37.2072 23.9599C37.3485 23.6221 37.2932 22.949 36.7017 23.3132C36.4481 23.4282 36.1383 23.6529 35.7742 23.931V22.2759C35.9988 22.555 36.1383 22.7534 36.2226 22.949C36.6175 22.7534 36.9255 22.6419 37.0668 22.584C37.18 22.555 37.2932 22.5269 37.4047 22.4979ZM37.4047 15.4214V16.4613C36.8983 15.9287 36.3358 15.4214 35.7742 15.0863V14.5519C36.3086 14.7484 36.8693 15.0555 37.4047 15.4214ZM37.4047 16.4613V15.4214C38.2199 16.0102 39.0071 16.7413 39.6838 17.4433H39.7408V19.4661H39.6838C39.5144 19.158 39.3441 18.8483 39.0642 18.5113C38.7272 18.062 38.1076 17.2214 37.4047 16.4613ZM37.4047 25.6185V22.4979C37.9101 22.4155 38.2761 22.555 38.2761 22.555C38.2761 22.555 39.9917 22.8648 38.2199 23.4282C38.1076 23.4554 37.7987 24.3567 37.4047 25.6185ZM37.4047 41.6855V38.7089L37.4337 38.6826C37.7706 38.3158 38.306 37.0503 38.306 36.6598C38.306 36.2948 37.8829 34.7204 37.4047 34.3273V33.2584C37.4889 33.2304 37.546 33.2584 37.6021 33.2584C37.9101 33.3989 38.4464 35.0846 38.5017 35.2241C38.5017 35.2241 38.2761 27.1087 38.7544 25.1412C38.9247 24.3838 39.3441 23.7932 39.6838 23.3421H39.7408V24.9147H39.6838C39.5723 25.1701 39.5144 25.3939 39.5144 25.5343C39.5144 25.845 39.5723 26.2336 39.6838 26.2091H39.7408V36.2622C39.7408 36.2948 39.7408 36.2948 39.6838 36.2948C39.6838 36.379 39.6566 36.4878 39.5986 36.572C39.2907 37.361 38.8957 37.8646 38.8957 37.8646C38.5017 38.4833 38.306 38.9888 39.1203 38.3456C39.3441 38.0902 39.5144 37.8646 39.6838 37.6391C39.7408 37.6391 39.7408 37.5856 39.7408 37.5856V39.5241H39.6838C39.1203 40.1401 38.3332 41.0106 37.4047 41.6855ZM42.5236 20.8166C42.1857 20.3085 41.0625 18.8736 39.7408 17.4433V19.4661C40.7536 21.1274 41.0335 22.3584 41.0335 22.3584C41.0335 22.3584 40.3577 22.6673 39.7408 23.3421V24.9147C39.9646 24.412 40.3577 23.8775 40.6395 23.6221C41.1177 23.1773 41.3415 23.622 41.2862 23.8476C41.2573 24.3838 40.8379 24.7743 40.5262 24.9437C39.7671 25.5343 39.9917 26.0388 39.7671 26.1512C39.7408 26.1512 39.7408 26.1512 39.7408 26.2091V36.2622C40.1892 35.0574 40.134 34.3273 40.1041 32.8635C40.0488 31.1514 39.9646 29.4675 40.134 29.7473C40.3577 30.0001 40.8922 32.1932 40.8922 33.2584C40.8379 35.3645 40.8379 36.1526 39.7408 37.5856V39.5241C39.9646 39.2959 40.1892 39.0757 40.3577 38.8765C41.8207 37.5014 42.1857 35.3645 42.4385 34.6932C42.6631 33.9903 42.4946 33.0075 42.0471 31.7411C41.6812 30.5354 41.2038 28.8497 40.9764 27.8107C40.7237 26.8007 40.6395 25.9275 40.9475 25.4781C41.2038 25.0587 41.2573 24.9989 41.6812 25.2254C42.0471 25.3939 42.2147 25.845 42.0471 27.6684C41.8777 29.6078 42.1024 30.0554 42.6359 28.8769C43.0598 27.8107 43.0291 26.6575 43.0598 25.9275C43.1704 25.1701 43.2836 24.4944 43.4811 24.1547C43.6496 23.7932 43.1704 21.8249 42.5236 20.8166Z" fill="white"/>
<path fill-rule="evenodd" clip-rule="evenodd" d="M4.16115 35.3671C4.076 35.3119 3.99176 35.2829 3.90751 35.2267C3.45731 35.0029 3.14751 34.6125 3.0062 34.0745C2.89478 33.5708 2.97902 33.0944 3.20458 32.6442C3.45731 32.1958 3.90751 31.8887 4.46914 31.7438C4.60864 31.6885 4.80611 31.6577 4.91934 31.6577H4.97641V32.3334C4.89035 32.3334 4.80611 32.3624 4.66571 32.3624C4.04792 32.5011 3.62579 32.7846 3.37397 33.1197C3.14751 33.4015 3.14751 33.7103 3.20458 34.0211C3.28882 34.3852 3.51347 34.6361 3.85045 34.7802C3.96277 34.8345 4.04792 34.8626 4.13216 34.8626C4.2164 34.9205 4.29974 34.9205 4.44015 34.9205H4.46914C4.58146 34.9205 4.66571 34.9205 4.69469 34.8626H4.91934L4.97641 34.8345V35.5094C4.69469 35.5094 4.44015 35.4541 4.16115 35.3671ZM4.97641 35.5094C5.1449 35.5094 5.2853 35.4541 5.45379 35.3952C5.98733 35.2267 6.43755 34.974 6.71923 34.5256C6.97197 34.0211 7.05622 33.5708 6.91585 33.0944C6.80348 32.588 6.5218 32.2528 6.07158 31.9684C5.98733 31.9132 5.9049 31.8887 5.84602 31.8289C5.81885 31.8289 5.81885 31.8289 5.81885 31.7999C5.73641 31.7999 5.64855 31.7438 5.53804 31.7438V31.6885C5.45379 31.6885 5.36864 31.6885 5.2853 31.6577H4.97641V32.3334C5.34056 32.2528 5.5951 32.2528 5.84602 32.2782V32.3334C5.95925 32.3334 6.0435 32.3624 6.12955 32.3624C6.43755 32.5011 6.60787 32.7846 6.71923 33.0944C6.80348 33.4594 6.74736 33.7674 6.57886 34.0211C6.29806 34.3299 5.84602 34.6125 5.22914 34.7802C5.1449 34.8345 5.05884 34.8345 4.97641 34.8345V35.5094Z" fill="white"/>
<path fill-rule="evenodd" clip-rule="evenodd" d="M2.98193 29.1578L5.84893 28.9286L5.90782 29.5237C5.96216 29.6342 5.90782 29.7746 5.84893 29.8589C5.82176 29.9984 5.7665 30.0537 5.65146 30.1361C5.59802 30.1678 5.45671 30.1678 5.28821 30.223L5.34347 30.3653L6.21671 30.223L5.99024 27.1069H5.11882V27.2184C5.28821 27.2184 5.42952 27.2184 5.51377 27.3288C5.65146 27.3578 5.68226 27.4421 5.73933 27.5562C5.7665 27.6396 5.7665 27.7782 5.82176 27.9484V28.3969L2.92667 28.6242C2.70021 28.6242 2.58698 28.6242 2.47647 28.5662C2.39041 28.5373 2.30798 28.3969 2.30798 28.2021V28.0862L2.22192 28.1161L2.30798 29.7457H2.44567V29.6062C2.39041 29.4658 2.44567 29.3236 2.47647 29.2375C2.58698 29.1858 2.70021 29.1858 2.98193 29.1578Z" fill="white"/>
<path fill-rule="evenodd" clip-rule="evenodd" d="M9.11103 39.0807C9.25234 39.107 9.33747 39.1622 9.42172 39.3298L9.47878 39.4711L9.56303 39.4431L8.97154 38.2374L8.83023 38.2627L8.94254 38.3506C8.97154 38.4883 9.02861 38.6278 8.97154 38.7138C8.94254 38.799 8.80305 38.8814 8.60555 39.0236L6.60995 40.0065L8.12908 36.5769L7.64991 35.6802H7.56566C7.64991 35.8205 7.64991 35.845 7.64991 35.96C7.67885 36.0443 7.67885 36.1575 7.64991 36.2137C7.64991 36.2997 7.64991 36.384 7.56566 36.5769L5.14703 37.7853C4.97855 37.8696 4.83633 37.8986 4.7548 37.8986C4.61077 37.8986 4.5836 37.8143 4.47127 37.7011L4.44229 37.5634L4.30188 37.5906L4.92148 38.799L5.00572 38.77L4.97855 38.6278C4.89249 38.4883 4.89249 38.3506 4.92148 38.2627C4.97855 38.2374 5.06098 38.1232 5.28744 38.01L7.36911 36.942L5.76573 40.6216L5.82098 40.6777L8.71881 39.2166C8.94254 39.107 9.05755 39.0807 9.11103 39.0807Z" fill="white"/>
<path fill-rule="evenodd" clip-rule="evenodd" d="M11.2531 44.2373L11.3373 44.2137L10.3527 43.0298L10.2684 43.1458C10.4088 43.2291 10.4351 43.3423 10.4351 43.3985V43.567C10.4088 43.6775 10.3237 43.7627 10.1823 43.8487L9.33995 44.6059C9.19769 44.5199 9.06003 44.4638 8.97396 44.3795C8.83264 44.3251 8.7484 44.2137 8.60803 44.1286C8.49566 43.932 8.41141 43.7065 8.35529 43.4537C8.29822 43.1738 8.35529 42.865 8.49566 42.5525C8.60803 42.2725 8.83264 42.0216 9.11344 41.7417C9.48126 41.489 9.87348 41.2924 10.2684 41.2616C10.7187 41.2064 11.1109 41.3467 11.4197 41.7417C11.6471 42.0216 11.7322 42.3305 11.7322 42.6394C11.7033 42.865 11.5882 43.0878 11.4786 43.3423L11.504 43.4537L12.4053 42.5832L12.3211 42.499C12.2377 42.5525 12.1798 42.5832 12.1236 42.5832C12.0955 42.5832 12.0402 42.5832 12.0402 42.5525C12.0113 42.499 11.9551 42.4682 11.9551 42.3305C11.8709 42.1629 11.7875 42.0216 11.7322 41.8794C11.7033 41.7988 11.5882 41.6565 11.504 41.5705C11.2802 41.2616 10.9714 41.0669 10.7186 40.9554C10.3237 40.8422 9.95861 40.815 9.50844 40.8974C9.19769 40.9799 8.88971 41.1239 8.60803 41.3468C8.27104 41.6565 8.04549 42.0216 7.96124 42.4682C7.82081 43.0878 7.9893 43.6775 8.49566 44.2373C8.66415 44.4357 8.83264 44.6059 9.03102 44.7446C9.19769 44.8288 9.42419 44.9701 9.59174 45.0553L10.5212 44.2953C10.6616 44.1576 10.8029 44.0715 10.8889 44.0715C10.9714 44.0163 11.1109 44.1286 11.196 44.2137L11.2531 44.2373Z" fill="white"/>
<path fill-rule="evenodd" clip-rule="evenodd" d="M14.544 44.8282C14.6563 44.773 14.7695 44.8282 14.8809 44.9143L15.0222 44.9986L15.0784 44.9143L13.7839 43.9043L13.7287 43.984L13.812 44.071C13.9252 44.128 13.9524 44.2132 14.0095 44.2947V44.4632C14.0095 44.5194 13.9252 44.6054 13.7839 44.773L12.1244 46.8247C12.041 46.9643 11.9559 47.0195 11.8717 47.0195C11.7884 47.0485 11.7331 47.0485 11.7041 47.0195C11.6479 46.9643 11.6479 46.8809 11.7041 46.7967C11.7331 46.63 11.7331 46.4878 11.7331 46.4298C11.7331 46.3447 11.7041 46.3447 11.6479 46.2894C11.589 46.2069 11.5048 46.2069 11.4206 46.2069C11.3381 46.2069 11.2811 46.2613 11.2539 46.3447C11.1678 46.4298 11.1117 46.5167 11.1678 46.6535C11.1678 46.7967 11.2811 46.938 11.4206 47.0195C11.5619 47.1608 11.7884 47.2469 11.9559 47.2469C12.1806 47.2469 12.3508 47.1608 12.4913 47.0485C12.6598 46.9643 12.8545 46.8247 13.0257 46.5738L14.235 45.1372C14.3465 44.9143 14.4597 44.8282 14.544 44.8282Z" fill="white"/>
<path fill-rule="evenodd" clip-rule="evenodd" d="M15.8597 45.5391L16.001 45.6487C16.0853 45.6777 16.1414 45.7347 16.1695 45.8172C16.2256 45.8751 16.2256 45.9593 16.2256 45.9865C16.2256 46.0409 16.1414 46.184 16.0853 46.3498L14.7908 48.4867C14.7066 48.685 14.6223 48.7956 14.5381 48.8517C14.4538 48.907 14.3134 48.8517 14.1721 48.7956L14.0308 48.7113L14.0037 48.7956L15.4095 49.6661L15.4666 49.5257L15.3805 49.4686C15.2981 49.4414 15.2401 49.3572 15.1567 49.3019C15.1015 49.2159 15.1015 49.1598 15.1015 49.1326C15.1015 49.0202 15.1858 48.9378 15.2981 48.7648L16.5355 46.6351C16.6768 46.4349 16.7592 46.2945 16.7864 46.2664C16.9277 46.2121 17.0681 46.2664 17.2094 46.3498L17.2955 46.4059L17.3245 46.2945L15.944 45.5083L15.8597 45.5391Z" fill="white"/>
<path fill-rule="evenodd" clip-rule="evenodd" d="M23.1188 48.5444L23.2601 48.5706C23.4295 48.6268 23.5128 48.6848 23.569 48.7953C23.5971 48.8514 23.5971 49.0199 23.5128 49.2464L23.1478 50.7628C23.0635 51.1804 22.9232 51.4331 22.8389 51.6333C22.7257 51.7447 22.5844 51.858 22.3588 51.8851C22.0789 51.9712 21.9104 51.9712 21.6576 51.8851C21.4321 51.858 21.2917 51.8027 21.2075 51.6623C21.0662 51.5762 20.9819 51.4911 20.9267 51.3525C20.8995 51.2094 20.8995 51.0989 20.9267 50.8742C20.9267 50.6767 20.9267 50.51 20.9819 50.3678L21.4321 48.711C21.4602 48.4864 21.5163 48.4004 21.6006 48.3179C21.6576 48.2626 21.7691 48.2336 21.9104 48.2626L22.0789 48.3179V48.2336L20.5045 47.8115L20.4474 47.9248L20.6159 47.952C20.7572 48.0108 20.8424 48.038 20.8995 48.1485C20.9267 48.2336 20.9267 48.3732 20.8995 48.5706L20.5045 50.0607C20.3913 50.51 20.3623 50.818 20.3623 50.9856C20.3913 51.2673 20.5045 51.4911 20.673 51.6623C20.8424 51.8851 21.1504 52.0264 21.5445 52.1668C21.9104 52.2511 22.2764 52.2511 22.5001 52.1668C22.7528 52.0264 22.9232 51.8851 23.0635 51.7184C23.203 51.52 23.2891 51.2094 23.3733 50.8742L23.7665 49.3569C23.8236 49.1323 23.8797 48.991 23.9078 48.9375C24.0482 48.8515 24.1895 48.7953 24.3009 48.8514L24.4404 48.9067L24.4984 48.7953L23.1478 48.4556L23.1188 48.5444Z" fill="white"/>
<path fill-rule="evenodd" clip-rule="evenodd" d="M27.9529 48.9916H28.0934C28.261 48.9916 28.3461 49.0206 28.4032 49.133C28.4322 49.1601 28.4874 49.3576 28.4874 49.5532L28.4032 51.8033L26.182 48.796L25.1113 48.7651V48.9074C25.2526 48.9074 25.3378 48.9074 25.3658 48.9382C25.4773 48.9916 25.5615 48.9916 25.5896 49.0206C25.6748 49.0759 25.7318 49.1601 25.8713 49.3576L25.7871 51.9718C25.7871 52.1938 25.7318 52.3369 25.6748 52.4211C25.5896 52.5072 25.5054 52.5624 25.3378 52.5624H25.1956V52.6431L26.5172 52.6983V52.6168H26.4067C26.2645 52.6168 26.1249 52.5072 26.096 52.4764C26.0407 52.3912 25.9827 52.2517 26.0407 51.9718L26.096 49.6665L28.5436 52.8423H28.6278L28.712 49.5532C28.712 49.3576 28.7401 49.2163 28.7963 49.1601C28.8805 49.0759 28.9648 49.0206 29.1595 49.0206H29.2746V48.9382L27.9529 48.8521V48.9916Z" fill="white"/>
<path fill-rule="evenodd" clip-rule="evenodd" d="M32.0351 52.1629C31.9499 52.1049 31.9218 52.1049 31.8657 52.0786C31.8657 51.9672 31.8376 51.854 31.7814 51.6583L31.3321 49.2116C31.2479 48.987 31.2479 48.8475 31.3049 48.7605C31.3874 48.6808 31.4734 48.6229 31.6129 48.5667L31.7262 48.5404V48.4517L30.0947 48.7605L30.1219 48.8475H30.545C30.573 48.9028 30.6283 48.9028 30.6573 48.9335C30.7135 48.987 30.7135 49.1555 30.7687 49.3529L31.2479 51.7987C31.3049 52.0225 31.3049 52.1629 31.2479 52.2471C31.2479 52.3323 31.1057 52.3866 30.9372 52.4165L30.8529 52.4718V52.5578L32.4563 52.2471V52.1629H32.0351Z" fill="white"/>
<path fill-rule="evenodd" clip-rule="evenodd" d="M35.5528 47.3351L35.608 47.4755L35.637 47.4194C35.7765 47.4194 35.8607 47.4194 35.9722 47.4755C36.0012 47.4755 36.0582 47.5018 36.0582 47.5579C36.0854 47.6422 36.0854 47.8107 36.0854 48.0372L35.9722 50.453L34.3135 48.6259C34.145 48.4547 34.0608 48.3723 34.0608 48.2618C34.0056 48.1766 34.0056 48.1476 34.0608 48.0933C34.088 48.01 34.1722 47.9511 34.3697 47.8677L34.3135 47.7835L32.8506 48.317V48.3995C32.9919 48.3723 33.0761 48.3723 33.1586 48.3723C33.2166 48.3723 33.299 48.3995 33.3851 48.3995C33.3851 48.4547 33.4693 48.4855 33.6106 48.6839L36.0582 51.3516L36.1407 51.2954L36.3671 47.7835C36.3671 47.5579 36.3952 47.4194 36.4505 47.2781C36.5356 47.1929 36.5936 47.1086 36.7041 47.0525L36.6769 46.9683L35.5528 47.3351Z" fill="white"/>
<path fill-rule="evenodd" clip-rule="evenodd" d="M41.5117 47.2496C41.5697 47.5005 41.5117 47.7278 41.5117 47.8664C41.4836 48.0087 41.4274 48.1463 41.3722 48.1753C41.2861 48.2605 41.2037 48.371 40.9764 48.4842L40.4419 48.8492C40.3577 48.9045 40.3015 48.9045 40.2172 48.9045C40.1892 48.9353 40.1892 48.9045 40.1339 48.9045C40.104 48.8493 40.0488 48.7931 39.9646 48.6246L39.2616 47.6137L39.9646 47.1073C40.104 47.0222 40.1892 46.967 40.3015 46.967C40.3577 46.967 40.4419 46.967 40.5262 47.0222C40.5832 47.0222 40.6675 47.1635 40.8079 47.2768L40.8378 47.1916L40.1339 46.0674L40.0488 46.1816C40.1892 46.3473 40.1892 46.4905 40.1892 46.6327C40.1339 46.7124 40.0488 46.8274 39.8812 46.967L39.1483 47.418L38.3059 46.1254L39.2045 45.5366C39.373 45.4478 39.4591 45.3681 39.5723 45.3681C39.6565 45.3102 39.7408 45.3681 39.8232 45.4243C39.9075 45.4478 40.0488 45.5058 40.1892 45.6752L40.2725 45.6462L39.7671 44.917L37.2932 46.5194L37.3485 46.6562L37.4616 46.5765C37.5459 46.4905 37.6863 46.4325 37.7706 46.4905C37.8829 46.4905 37.9689 46.6327 38.0804 46.8274L39.4591 48.9045C39.5723 49.073 39.6565 49.1573 39.6565 49.2442C39.6565 49.2995 39.6565 49.3547 39.5986 49.439C39.5723 49.5232 39.5143 49.5504 39.4301 49.6083L39.344 49.6944L39.373 49.7768L41.8777 48.1753L41.5959 47.1635L41.5117 47.2496Z" fill="white"/>
<path fill-rule="evenodd" clip-rule="evenodd" d="M42.6655 42.6397V43.0301H42.6383C42.497 43.0301 42.4146 43.0881 42.2723 43.1741C42.2171 43.2294 42.1881 43.2593 42.1328 43.3145C42.0495 43.3426 41.9644 43.483 41.8801 43.6225L42.6655 44.5202V45.3083L41.7388 44.3254C41.5721 44.1579 41.4299 44.0166 41.3746 44.0166C41.2596 44.0166 41.1472 44.0718 41.0359 44.1579L40.9498 44.2955L40.8402 44.2141L41.8801 43.2294C42.1881 42.9504 42.4146 42.7792 42.583 42.6949C42.6383 42.6397 42.6655 42.6397 42.6655 42.6397ZM45.7336 44.464C45.6203 44.5202 45.3386 44.5202 45.0859 44.436L43.7072 44.2141C43.9047 43.9323 44.0179 43.6778 44.0179 43.454C43.9617 43.1741 43.8757 43.0074 43.7072 42.8082C43.5677 42.6949 43.3974 42.5527 43.1727 42.5527H43.0314C42.9472 42.5527 42.8077 42.5527 42.7226 42.5835L42.6655 42.6397V43.0301H42.7226C42.9472 43.0301 43.1157 43.146 43.286 43.3145C43.4834 43.483 43.5097 43.6778 43.5097 43.9323C43.4834 44.1579 43.3412 44.436 43.0623 44.6896C43.0623 44.6896 43.0314 44.6896 43.0314 44.7448C43.0314 44.7448 42.9753 44.7738 42.9472 44.7738L42.6655 44.5202V45.3083L43.4834 46.1235C43.5949 46.2621 43.7072 46.4016 43.7072 46.4306C43.7362 46.5746 43.7072 46.7105 43.5677 46.8256L43.4834 46.9388L43.5097 47.0203L44.7199 45.8128L44.6629 45.7567L44.5523 45.8708C44.4382 45.9822 44.3549 45.9822 44.2398 45.9822C44.1302 45.9822 44.0179 45.8971 43.8757 45.7304L43.0623 44.9151C43.1157 44.9151 43.1157 44.8861 43.1727 44.8861C43.1727 44.8291 43.1999 44.8291 43.1999 44.8291C43.2579 44.7738 43.286 44.6896 43.3974 44.6597L45.5633 44.9994L46.3251 44.3254L46.2373 44.2376C46.0416 44.3798 45.8731 44.464 45.7336 44.464Z" fill="white"/>
<path fill-rule="evenodd" clip-rule="evenodd" d="M48.0379 40.2832C47.9255 40.1963 47.7851 40.141 47.6438 40.141C47.4753 40.0867 47.3349 40.141 47.1664 40.1963C46.9961 40.1963 46.7162 40.3086 46.3493 40.507C45.9281 40.7316 45.6193 40.8448 45.4218 40.8448C45.2804 40.9001 45.1962 40.8448 45.0848 40.8176C44.9725 40.6736 44.8873 40.5921 44.8592 40.4218C44.8592 40.2253 44.8873 40.0558 44.9725 39.8602C45.0848 39.7497 45.1962 39.6645 45.3937 39.5513C45.5622 39.4671 45.7324 39.439 45.9281 39.4671C46.0966 39.4671 46.2651 39.525 46.4907 39.6645L46.5749 39.5513L45.4779 38.7949L45.4218 38.8773C45.4779 38.9326 45.506 39.0196 45.506 39.0196V39.1581C45.4779 39.2125 45.3937 39.2415 45.2804 39.3258C45.0848 39.4671 44.9435 39.6093 44.804 39.7769C44.6355 40.0024 44.5512 40.3086 44.5775 40.5921C44.6355 40.9001 44.7768 41.1266 44.9725 41.2951C45.112 41.3494 45.2533 41.4355 45.3937 41.4355C45.5622 41.4916 45.7035 41.4355 45.8719 41.4047C46.0404 41.3494 46.324 41.209 46.6592 41.0695C46.9961 40.9001 47.1936 40.8176 47.3068 40.7606C47.4191 40.7316 47.5596 40.7316 47.6438 40.7316C47.7851 40.7316 47.8412 40.7606 47.9255 40.8448C48.094 40.9581 48.1773 41.0695 48.1773 41.2642C48.1773 41.4355 48.151 41.6592 48.0089 41.8259C47.8694 42.0243 47.7281 42.1085 47.5596 42.1909C47.3929 42.2752 47.2506 42.3331 47.0804 42.3331C46.8856 42.3331 46.7162 42.2489 46.4635 42.1656L46.4064 42.1909L47.4753 43.0098L47.5324 42.9237C47.4753 42.8105 47.4191 42.7815 47.4191 42.7253C47.4191 42.6973 47.4191 42.6973 47.4753 42.642C47.4753 42.5859 47.5596 42.5016 47.7281 42.3594C47.8694 42.2752 48.0089 42.1909 48.0089 42.1656C48.094 42.0523 48.1773 42.0243 48.2335 41.882C48.4591 41.6039 48.4862 41.2951 48.4862 40.9825C48.4038 40.6736 48.2616 40.4517 48.0379 40.2832Z" fill="white"/>
<path fill-rule="evenodd" clip-rule="evenodd" d="M50.3737 37.7813C50.3157 37.8656 50.2885 37.8946 50.1753 37.948C50.1472 38.006 50.0919 38.006 50.0077 38.006C49.9516 38.006 49.8383 37.948 49.6988 37.8656L47.4758 36.7442C47.2512 36.602 47.109 36.5177 47.0809 36.4887C47.0256 36.351 47.0257 36.2632 47.109 36.1255L47.167 35.9851L47.0809 35.9561L46.3499 37.4172L46.464 37.4734L46.4912 37.3312C46.5482 37.2487 46.5754 37.1916 46.6597 37.1382C46.7167 37.1083 46.8019 37.0513 46.8572 37.0513C46.8862 37.1083 47.0256 37.1382 47.1941 37.2487L49.4171 38.3466C49.6417 38.4553 49.7541 38.5396 49.7831 38.6238C49.8383 38.7099 49.8383 38.8521 49.7541 38.9897L49.6988 39.103L49.7831 39.1582L50.5422 37.6971L50.457 37.64L50.3737 37.7813Z" fill="white"/>
<path fill-rule="evenodd" clip-rule="evenodd" d="M51.6937 33.7969C51.6656 33.9392 51.6094 34.0234 51.5252 34.0769C51.441 34.1077 51.3015 34.1077 51.0759 34.0234L48.2334 33.2634L48.3756 32.729C48.4037 32.5904 48.4589 32.4771 48.5441 32.3648C48.6283 32.3358 48.7144 32.2552 48.8539 32.2552C48.9091 32.1982 49.0224 32.1982 49.1618 32.2552L49.218 32.1401L48.3756 31.9155L47.5322 35.0053L48.3756 35.2852L48.4037 35.1467C48.2334 35.0896 48.151 35.0053 48.0377 34.9229C47.9544 34.8369 47.9254 34.7526 47.9254 34.6385C47.9254 34.556 47.9254 34.4165 47.9544 34.2499L48.0939 33.7969L50.9337 34.556C51.1593 34.6149 51.2444 34.6983 51.3287 34.7526C51.3839 34.8369 51.3839 34.9764 51.3287 35.0896V35.2291L51.441 35.2852L51.8341 33.6574H51.7517L51.6937 33.7969Z" fill="white"/>
<path fill-rule="evenodd" clip-rule="evenodd" d="M52.5911 28.4293L52.5359 28.5696C52.5359 28.7092 52.5069 28.8514 52.3946 28.8785C52.3674 28.932 52.1708 28.99 51.9752 28.932L50.9887 28.8785L49.6118 27.8676C49.4143 27.7263 49.302 27.5877 49.2458 27.5017C49.1598 27.4455 49.1045 27.3612 49.0755 27.2218C49.0203 27.1375 49.0203 27.1103 49.0203 27.0243V26.9663H48.907L48.7965 28.3187H48.936C48.936 28.2055 48.936 28.1195 48.9913 28.0896C49.0203 28.0325 49.0203 28.008 49.0755 28.008C49.1045 27.9518 49.1598 27.9518 49.2159 27.9518C49.3301 27.9518 49.4143 28.0325 49.6118 28.1195L50.765 28.99L49.4705 29.6938C49.2458 29.778 49.1598 29.8623 49.0755 29.8623C48.9913 29.8333 48.936 29.778 48.907 29.6938C48.8518 29.6376 48.8518 29.5534 48.8518 29.4691V29.3822H48.7657L48.6262 31.0435H48.7123C48.7123 30.9284 48.7657 30.9013 48.7657 30.846C48.8518 30.7301 48.907 30.6223 48.9913 30.5933C49.0203 30.5372 49.1598 30.5063 49.3301 30.3687L51.0159 29.4121L51.9181 29.5271C52.1418 29.5271 52.2832 29.5271 52.3121 29.6096C52.4525 29.6376 52.5069 29.7781 52.4525 29.9474V30.086H52.5359L52.6763 28.4293H52.5911Z" fill="white"/>
</g>
<defs>
<clipPath id="clip0_1396_183">
<rect width="55.3671" height="55.367" fill="white"/>
</clipPath>
</defs>
</svg>
