<svg width="143" height="56" viewBox="0 0 143 56" fill="none" xmlns="http://www.w3.org/2000/svg">
<path d="M142.018 22.9878L139.971 23.2801C140.166 24.7479 140.359 26.2145 140.359 27.6773C140.359 41.6656 128.914 53.3065 115.023 53.3065C113.947 53.3065 112.774 53.3065 111.698 53.2082C116.883 51.0562 121.284 47.1427 124.317 42.1544L121.676 42.448C118.35 47.3393 113.557 50.7626 107.981 52.4258C106.22 51.8386 104.36 51.2515 102.796 50.2737C105.437 48.4153 107.589 46.0667 109.546 43.4257L106.807 43.7193C105.18 45.8067 103.232 47.6227 101.036 49.0994C97.9488 46.9915 95.3747 44.2167 93.504 40.9801L134.001 37.4598C134.588 37.4598 135.077 37.0718 135.371 36.4807C135.613 35.9591 135.746 35.3928 135.759 34.8176C135.662 34.4296 135.563 33.8398 135.27 33.6445C135.465 33.2565 135.465 32.8621 135.465 32.2749C135.368 31.8869 135.27 31.2959 134.976 31.1006C135.171 30.7126 135.171 30.3182 135.171 29.731C135.074 29.343 134.976 28.7533 134.683 28.558C134.879 28.17 134.879 27.7756 134.879 27.1884C134.781 25.8188 133.803 25.0363 132.629 25.0363L130.477 25.1333L128.129 25.2316L128.031 23.7637C127.933 22.786 127.542 22.0036 126.955 21.613C126.368 21.0258 125.684 20.9275 124.608 21.0258L122.749 21.1228L123.238 26.5029V26.6012C123.337 27.1884 123.14 27.1884 122.85 27.1884L99.2708 29.3469L96.9235 29.6405C96.8553 29.5583 96.8203 29.4536 96.8252 29.3469C96.8252 29.2486 96.8252 29.0533 96.7282 29.0533L96.6299 26.9983C96.5615 26.9167 96.5264 26.8123 96.5316 26.706C96.5316 26.6077 96.5316 26.4124 96.4346 26.4124L96.3363 24.5539C96.2682 24.4717 96.2332 24.367 96.2381 24.2604C96.2381 24.0638 96.2381 23.9668 96.1411 23.9668L96.0428 21.9117C95.9744 21.8302 95.9393 21.7258 95.9445 21.6195C95.9445 21.4229 96.0428 21.3259 95.9445 21.3259L102.01 20.7387L101.819 17.2171C101.72 16.4346 101.916 16.1411 102.796 16.0428L103.184 19.664C103.38 21.913 105.238 21.913 105.825 21.913L141.431 18.7833L140.942 17.6089C136.638 7.14099 126.27 0.000701865 115.019 0.000701865C112.637 -0.0173265 110.265 0.312048 107.977 0.978434C105.629 0.29428 103.281 0.000701865 100.735 0.000701865C98.1883 0.000701865 95.9406 0.29428 93.6915 0.978434C91.405 0.312333 89.0336 -0.0170381 86.6521 0.000701865C84.2065 0.000701865 81.8592 0.29428 79.6088 0.978434C77.3201 0.31855 74.9488 -0.010693 72.5668 0.000701865C70.1212 0.000701865 67.7726 0.388691 65.5235 0.978434C63.1762 0.388691 60.9258 0.000701865 58.2849 0.000701865C55.8393 0.000701865 53.492 0.388691 51.2416 0.978434C48.9913 0.388691 46.644 0.000701865 44.1984 0.000701865C41.7527 0.000701865 39.4054 0.388691 37.1538 0.978434C34.906 0.388691 32.5587 0.000701865 30.1131 0.000701865C23.5997 -0.0153596 17.2878 2.25852 12.2811 6.42478C7.2744 10.591 3.89143 16.3846 2.72362 22.7925V0.881437H0.766846V54.389H2.82062V32.575C5.16795 45.4873 16.4183 55.3668 29.8195 55.3668C32.2651 55.3668 34.6124 54.9788 36.8615 54.389C39.1118 54.9749 41.4591 55.3668 43.9048 55.3668C46.3504 55.3668 48.6977 54.9788 50.9481 54.389C53.1984 54.9749 55.5458 55.3668 57.9914 55.3668C60.437 55.3668 62.7843 54.9788 65.0347 54.389C67.2837 54.9749 69.631 55.3668 72.0767 55.3668C74.5223 55.3668 76.8709 55.0732 79.12 54.389C81.3703 54.9749 83.7176 55.3668 86.1633 55.3668C88.6111 55.3788 91.0487 55.0497 93.4057 54.389C95.6561 54.9749 98.0034 55.3668 100.449 55.3668C102.897 55.3788 105.334 55.0497 107.691 54.389C109.941 54.9749 112.289 55.3668 114.735 55.3668C129.798 55.3668 142.221 42.9433 142.221 27.6902C142.404 26.1219 142.335 24.5345 142.018 22.9878ZM100.739 2.05446C101.912 2.05446 102.988 2.05446 104.064 2.15275C102.891 2.7399 101.815 3.22877 100.739 3.91293C99.6627 3.22877 98.4884 2.7399 97.4123 2.15275C98.4884 2.15275 99.6627 2.05446 100.739 2.05446ZM98.9772 5.2877C96.9895 6.69274 95.2112 8.37265 93.6954 10.2772C92.1397 8.44357 90.4026 6.77189 88.5106 5.2877C90.138 4.348 91.8809 3.62455 93.6954 3.13565C95.5539 3.71764 97.2171 4.30479 98.9734 5.28253L98.9772 5.2877ZM86.5538 2.05446C87.6299 2.05446 88.8042 2.05446 89.8802 2.34804C88.7059 2.93519 87.6299 3.42406 86.5538 4.10951C85.4778 3.42406 84.3048 2.93519 83.2288 2.34804C84.3272 2.14897 85.4414 2.0507 86.5577 2.05446H86.5538ZM84.6954 5.2877C82.8038 6.77192 81.0671 8.4436 79.5118 10.2772C77.9561 8.44357 76.219 6.77189 74.327 5.2877C75.9902 4.30997 77.7504 3.52752 79.5118 3.13565C81.272 3.71764 83.0335 4.30479 84.6954 5.28253V5.2877ZM46.9375 27.6837C46.9491 22.7558 48.3752 17.9349 51.0464 13.7937C53.7468 17.9213 55.1751 22.7513 55.1539 27.6837C55.1423 32.6114 53.7166 37.4323 51.0464 41.5737C48.4054 37.6615 46.9375 32.7703 46.9375 27.6837ZM49.8721 43.3326C48.223 45.4557 46.2799 47.333 44.1014 48.908C37.3516 44.3104 32.8497 36.4846 32.8497 27.7794C32.8497 19.0742 37.2469 11.1502 44.1014 6.64954C46.3672 8.11758 48.3269 10.011 49.8721 12.2249C46.8393 16.6222 44.8838 22.1057 44.8838 27.8738C44.8838 33.6419 46.7423 38.8345 49.8721 43.3352V43.3326ZM57.3059 27.6837C57.3059 21.9117 55.5457 16.5316 52.3177 12.0348C53.9668 9.91179 55.9099 8.03447 58.0884 6.45943C60.3543 7.92518 62.3144 9.81639 63.8604 12.0284C60.8276 16.4256 58.8721 21.9079 58.8721 27.6773C58.8721 33.4467 60.6323 38.8281 63.8604 43.3262C62.2108 45.4492 60.2673 47.3265 58.0884 48.9016C55.8226 47.4335 53.8628 45.5401 52.3177 43.3262C55.4475 38.8345 57.3059 33.4544 57.3059 27.6837ZM61.0242 27.6837C61.0358 22.756 62.4614 17.9352 65.1317 13.7937C67.8325 17.9212 69.2613 22.7512 69.2405 27.6837C69.2405 32.7703 67.7726 37.6615 65.2313 41.5737C62.6861 37.6615 61.0242 32.7703 61.0242 27.6837ZM71.4908 27.6837C71.4908 21.9117 69.7293 16.5316 66.5013 12.0348C68.1508 9.91176 70.0943 8.03444 72.2733 6.45943C74.5385 7.92556 76.4981 9.81673 78.0439 12.0284C75.0111 16.4256 73.0557 21.9079 73.0557 27.6773C73.0557 33.4467 74.8159 38.8281 78.0439 43.3262C76.3948 45.4492 74.4518 47.3265 72.2733 48.9016C70.0068 47.4339 68.0465 45.5405 66.5013 43.3262C69.7697 38.7673 71.5159 33.2931 71.4908 27.6837ZM75.3047 27.6837C75.3168 22.7559 76.7429 17.9351 79.4135 13.7937C82.1144 17.9212 83.5431 22.7512 83.5223 27.6837C83.5223 32.7703 82.0545 37.6615 79.5131 41.5737C76.7687 37.4613 75.3047 32.6278 75.306 27.6837H75.3047ZM72.3703 2.05446C73.4463 2.05446 74.6206 2.05446 75.6966 2.34804C74.5223 2.93519 73.4463 3.42406 72.3703 4.10951C71.3925 3.42406 70.3165 2.93519 69.137 2.34804C70.2025 2.14431 71.2855 2.04598 72.3703 2.05446ZM65.23 3.13048C67.0051 3.72934 68.7373 4.44835 70.4148 5.28253C68.555 6.75042 66.5996 8.4136 65.23 10.2721C63.6743 8.4384 61.9371 6.76672 60.0451 5.28253C61.61 4.30479 63.4685 3.71764 65.23 3.13048ZM58.0884 2.05446C59.2036 2.05523 60.3166 2.15346 61.4147 2.34804C60.2404 2.93519 59.1644 3.42406 58.0884 4.10951C57.0124 3.42406 56.0346 2.8369 54.7633 2.34804C55.8621 2.1618 56.974 2.06363 58.0884 2.05446ZM56.3282 5.2877C54.4697 6.75559 52.513 8.41877 51.1434 10.2772C49.5881 8.4436 47.8514 6.77192 45.9598 5.2877C47.5868 4.34802 49.3293 3.62456 51.1434 3.13565C52.9048 3.71764 54.665 4.30479 56.3282 5.28253V5.2877ZM43.9048 2.05446C45.02 2.05523 46.133 2.15346 47.2311 2.34804C46.0568 2.93519 44.9808 3.42406 43.9048 4.10951C42.8288 3.42406 41.7527 2.93519 40.5797 2.34804C41.679 2.16588 42.7906 2.06774 43.9048 2.05446ZM29.8195 53.313C15.7329 53.313 4.48378 41.8673 4.48378 27.6837C4.48378 13.5001 15.8312 2.05446 29.8195 2.05446C30.9343 2.05524 32.0469 2.15348 33.1445 2.34804C23.3633 6.65213 16.6136 16.3363 16.6136 27.6837C16.6136 39.0311 23.3633 48.7153 33.1445 53.0259C32.0472 53.2225 30.9343 53.3186 29.8195 53.313ZM18.5678 27.6837C18.5678 16.0441 26.3922 6.26155 36.8589 3.13048C38.6342 3.72887 40.3665 4.4479 42.0437 5.28253C35.197 10.2721 30.5993 18.4884 30.5993 27.6837C30.5993 36.8791 35.0987 44.9001 42.0437 50.0849C40.4164 51.0246 38.6734 51.7481 36.8589 52.237C26.1995 49.1059 18.5704 39.3247 18.5704 27.6837H18.5678ZM43.9048 53.313C42.79 53.3122 41.6774 53.214 40.5797 53.0194C41.7527 52.4323 42.8288 51.9434 43.9048 51.2579C44.9808 51.9434 46.0568 52.4323 47.2311 53.0194C46.1342 53.2227 45.0204 53.321 43.9048 53.313ZM51.0464 52.237C49.2711 51.6386 47.5388 50.9196 45.8615 50.0849C47.72 48.617 49.6768 46.9539 51.0464 45.0954C52.6016 46.929 54.3383 48.6007 56.2299 50.0849C54.665 51.0627 52.9048 51.6498 51.0464 52.237ZM58.0884 53.313C56.9736 53.3122 55.861 53.214 54.7633 53.0194C55.9363 52.4323 57.0124 51.9434 58.0884 51.2579C59.1644 51.9434 60.2404 52.4323 61.4147 53.0194C60.3172 53.2183 59.2038 53.3166 58.0884 53.313ZM60.0451 50.0798C61.9036 48.6119 63.8604 46.9487 65.23 45.0902C66.7853 46.9242 68.5225 48.5959 70.4148 50.0798C68.7873 51.0192 67.0444 51.7427 65.23 52.2318C63.4685 51.6498 61.61 51.0627 60.0451 50.0849V50.0798ZM72.3703 53.313C71.2555 53.3122 70.1429 53.214 69.0452 53.0194C70.2182 52.4323 71.2942 51.9434 72.3703 51.2579C73.4463 51.9434 74.5223 52.4323 75.6966 53.0194C74.5985 53.214 73.4855 53.3122 72.3703 53.313ZM79.5118 52.237C77.73 51.6561 75.9964 50.9365 74.327 50.0849C76.1855 48.617 78.1422 46.9539 79.5118 45.0954C81.0671 46.929 82.8038 48.6007 84.6954 50.0849C83.0335 51.0627 81.272 51.6498 79.5118 52.237ZM86.5538 53.313C85.4778 53.313 84.3048 53.313 83.2288 53.0194C84.4018 52.4323 85.4778 51.9434 86.5538 51.2579C87.6299 51.9434 88.8042 52.4323 89.8802 53.0194C88.7839 53.2181 87.6718 53.3163 86.5577 53.313H86.5538ZM93.5971 52.237C91.8223 51.6383 90.0905 50.9193 88.4136 50.0849C89.5866 49.1059 90.7609 48.2252 91.934 46.9539L88.6089 47.2474C88.0217 47.8346 87.3376 48.3235 86.4568 48.9106C84.1817 47.4195 82.1937 45.5309 80.5879 43.3352C83.6194 38.938 85.5761 33.4544 85.5761 27.6863C85.5761 21.9182 83.8159 16.5342 80.5879 12.0374C82.2497 9.88537 84.2091 8.12519 86.3585 6.46201C88.5832 7.93869 90.5634 9.75397 92.2275 11.8421C89.1961 16.2393 87.2393 21.7216 87.2393 27.5906C87.2393 30.4281 87.7282 33.2643 88.5106 36.1018L90.3691 35.4164C89.5833 32.8824 89.1877 30.2436 89.196 27.5906C89.2086 22.6182 90.6701 17.7572 93.4018 13.6023C93.8907 14.3848 94.3796 15.2655 94.7714 16.0479L97.0218 15.9509C96.4538 14.4997 95.6612 13.1468 94.6731 11.9417C96.3004 9.85429 98.2486 8.03834 100.445 6.5616C103.967 8.81064 106.803 12.137 108.661 15.8539L110.912 15.7556C108.901 11.6682 105.952 8.11513 102.304 5.38728C103.967 4.39791 105.727 3.62193 107.585 3.23394C113.846 4.99412 119.128 9.20122 122.458 15.0702L124.707 14.9719C121.773 9.39651 117.077 5.09241 111.405 2.74508C112.481 2.64679 113.557 2.4515 114.638 2.4515C124.713 2.4515 133.908 8.51577 137.917 17.7124L104.952 20.6469C104.564 20.6469 104.564 20.6469 104.463 20.0597L103.975 14.386L102.116 14.4843C100.256 14.5826 99.1803 15.9522 99.3769 17.8107L99.4739 19.2773L95.4647 19.6653C94.3886 19.7623 93.6062 20.8383 93.7045 22.1109C93.8028 22.4989 93.8998 23.0886 94.1933 23.2839C93.9981 23.6719 93.9981 24.0664 93.9981 24.6535C94.0951 25.0415 94.1933 25.6326 94.4869 25.8278C94.2916 26.2158 94.2916 26.6038 94.2916 27.1974C94.3886 27.5854 94.4869 28.1752 94.7805 28.3705C94.5852 28.7585 94.5852 29.1464 94.5852 29.7401C94.6822 31.1097 95.6612 31.9904 96.8342 31.8921L99.2799 31.5985L122.854 29.4465C124.028 29.3495 125.203 28.4688 125.006 26.6103L124.618 23.0886C124.813 23.0886 125.205 23.0886 125.401 23.1869C125.596 23.2852 125.596 23.7741 125.789 23.9694L125.985 26.512L126.082 27.491L130.289 27.103L132.343 27.0047C132.411 27.087 132.446 27.1916 132.441 27.2983C132.441 27.3966 132.343 27.5919 132.538 27.5919L132.637 29.647C132.705 29.729 132.74 29.8338 132.735 29.9405C132.735 30.1358 132.637 30.2328 132.832 30.2328L133.321 32.2879C133.389 32.3699 133.424 32.4747 133.419 32.5814C133.419 32.6784 133.321 32.875 133.517 32.875L133.614 34.9288C133.682 35.011 133.718 35.1157 133.713 35.2224C133.713 35.4176 133.614 35.5159 133.713 35.5159L90.2811 39.1372L90.9653 40.5068C93.019 44.4203 95.9535 47.6484 99.1816 50.191C97.3699 51.0019 95.5039 51.6856 93.5971 52.237ZM100.739 53.313C99.6235 53.3122 98.5105 53.214 97.4123 53.0194C98.5867 52.4323 99.6627 51.9434 100.739 51.2579C101.815 51.9434 102.988 52.4323 104.064 53.0194C102.967 53.2182 101.854 53.3165 100.739 53.313Z" fill="white"/>
</svg>
